<mxfile host="Electron" modified="2023-11-06T06:38:51.054Z" agent="Mozilla/5.0 (X11; Linux x86_64) AppleWebKit/537.36 (KHTML, like Gecko) draw.io/22.0.3 Chrome/114.0.5735.289 Electron/25.8.4 Safari/537.36" etag="UC0BsvFQ3U3gTwD1PoH2" version="22.0.3" type="device">
  <diagram name="Page-1" id="rgzYKHya9oizqAIKKXlI">
    <mxGraphModel dx="3054" dy="1363" grid="1" gridSize="10" guides="1" tooltips="1" connect="1" arrows="1" fold="1" page="1" pageScale="1" pageWidth="850" pageHeight="1100" math="0" shadow="0">
      <root>
        <mxCell id="0" />
        <mxCell id="1" parent="0" />
        <mxCell id="KI7-48ItUX7r2pZbDz1g-1" value="" style="rounded=1;whiteSpace=wrap;html=1;" vertex="1" parent="1">
          <mxGeometry x="57" y="92" width="323" height="558" as="geometry" />
        </mxCell>
        <mxCell id="KI7-48ItUX7r2pZbDz1g-2" value="USSPFlightAuthorization" style="shape=umlLifeline;perimeter=lifelinePerimeter;whiteSpace=wrap;html=1;container=1;collapsible=0;recursiveResize=0;outlineConnect=0;" vertex="1" parent="1">
          <mxGeometry x="-181" y="118" width="144" height="492" as="geometry" />
        </mxCell>
        <mxCell id="KI7-48ItUX7r2pZbDz1g-3" value="" style="endArrow=classic;html=1;rounded=0;" edge="1" parent="KI7-48ItUX7r2pZbDz1g-2">
          <mxGeometry width="50" height="50" relative="1" as="geometry">
            <mxPoint x="74" y="106" as="sourcePoint" />
            <mxPoint x="299" y="104" as="targetPoint" />
          </mxGeometry>
        </mxCell>
        <mxCell id="KI7-48ItUX7r2pZbDz1g-4" value="&lt;div tabindex=&quot;0&quot; role=&quot;button&quot; style=&quot;font-size: 11px;&quot;&gt;&lt;div class=&quot;sc-hHOBiw iHxTBu&quot; style=&quot;font-size: 11px;&quot;&gt;qgcs/flight_declaration&lt;/div&gt;&lt;/div&gt;" style="edgeLabel;html=1;align=center;verticalAlign=middle;resizable=0;points=[];" connectable="0" vertex="1" parent="KI7-48ItUX7r2pZbDz1g-3">
          <mxGeometry x="-0.031" y="1" relative="1" as="geometry">
            <mxPoint as="offset" />
          </mxGeometry>
        </mxCell>
        <mxCell id="KI7-48ItUX7r2pZbDz1g-5" value="" style="html=1;points=[];perimeter=orthogonalPerimeter;outlineConnect=0;targetShapes=umlLifeline;portConstraint=eastwest;newEdgeStyle={&quot;edgeStyle&quot;:&quot;elbowEdgeStyle&quot;,&quot;elbow&quot;:&quot;vertical&quot;,&quot;curved&quot;:0,&quot;rounded&quot;:0};" vertex="1" parent="KI7-48ItUX7r2pZbDz1g-2">
          <mxGeometry x="67" y="90" width="10" height="95" as="geometry" />
        </mxCell>
        <mxCell id="KI7-48ItUX7r2pZbDz1g-6" value="" style="html=1;points=[];perimeter=orthogonalPerimeter;outlineConnect=0;targetShapes=umlLifeline;portConstraint=eastwest;newEdgeStyle={&quot;edgeStyle&quot;:&quot;elbowEdgeStyle&quot;,&quot;elbow&quot;:&quot;vertical&quot;,&quot;curved&quot;:0,&quot;rounded&quot;:0};" vertex="1" parent="KI7-48ItUX7r2pZbDz1g-2">
          <mxGeometry x="67" y="226" width="10" height="212" as="geometry" />
        </mxCell>
        <mxCell id="KI7-48ItUX7r2pZbDz1g-7" value="" style="endArrow=classic;html=1;rounded=0;" edge="1" parent="KI7-48ItUX7r2pZbDz1g-2" target="KI7-48ItUX7r2pZbDz1g-6">
          <mxGeometry width="50" height="50" relative="1" as="geometry">
            <mxPoint x="78" y="342" as="sourcePoint" />
            <mxPoint x="77" y="368" as="targetPoint" />
            <Array as="points">
              <mxPoint x="111" y="343" />
              <mxPoint x="111" y="392" />
            </Array>
          </mxGeometry>
        </mxCell>
        <mxCell id="KI7-48ItUX7r2pZbDz1g-8" value="Timeout" style="text;html=1;align=center;verticalAlign=middle;resizable=0;points=[];autosize=1;strokeColor=none;fillColor=none;" vertex="1" parent="KI7-48ItUX7r2pZbDz1g-2">
          <mxGeometry x="72" y="301" width="61" height="26" as="geometry" />
        </mxCell>
        <mxCell id="KI7-48ItUX7r2pZbDz1g-9" value="USSPPlanController" style="shape=umlLifeline;perimeter=lifelinePerimeter;whiteSpace=wrap;html=1;container=1;collapsible=0;recursiveResize=0;outlineConnect=0;" vertex="1" parent="1">
          <mxGeometry x="-365" y="120" width="115" height="490" as="geometry" />
        </mxCell>
        <mxCell id="KI7-48ItUX7r2pZbDz1g-10" value="USSPServiceController" style="shape=umlLifeline;perimeter=lifelinePerimeter;whiteSpace=wrap;html=1;container=1;collapsible=0;recursiveResize=0;outlineConnect=0;" vertex="1" parent="1">
          <mxGeometry x="-573" y="119" width="129" height="501" as="geometry" />
        </mxCell>
        <mxCell id="KI7-48ItUX7r2pZbDz1g-11" value="" style="html=1;points=[];perimeter=orthogonalPerimeter;outlineConnect=0;targetShapes=umlLifeline;portConstraint=eastwest;newEdgeStyle={&quot;edgeStyle&quot;:&quot;elbowEdgeStyle&quot;,&quot;elbow&quot;:&quot;vertical&quot;,&quot;curved&quot;:0,&quot;rounded&quot;:0};" vertex="1" parent="KI7-48ItUX7r2pZbDz1g-10">
          <mxGeometry x="59.5" y="161" width="10" height="29" as="geometry" />
        </mxCell>
        <mxCell id="KI7-48ItUX7r2pZbDz1g-12" value="" style="endArrow=classic;html=1;rounded=0;" edge="1" parent="KI7-48ItUX7r2pZbDz1g-10">
          <mxGeometry width="50" height="50" relative="1" as="geometry">
            <mxPoint x="55" y="305" as="sourcePoint" />
            <mxPoint x="-205" y="305" as="targetPoint" />
          </mxGeometry>
        </mxCell>
        <mxCell id="KI7-48ItUX7r2pZbDz1g-13" value="&lt;div&gt;State transition from&lt;/div&gt;&lt;div&gt;&amp;nbsp;&lt;b&gt;SendFlightPlan&lt;/b&gt; to &lt;b&gt;Approved&lt;/b&gt;&lt;br&gt;&lt;/div&gt;" style="edgeLabel;html=1;align=center;verticalAlign=middle;resizable=0;points=[];" connectable="0" vertex="1" parent="KI7-48ItUX7r2pZbDz1g-12">
          <mxGeometry x="-0.1131" y="-2" relative="1" as="geometry">
            <mxPoint x="-12" y="1" as="offset" />
          </mxGeometry>
        </mxCell>
        <mxCell id="KI7-48ItUX7r2pZbDz1g-14" value="" style="endArrow=classic;html=1;rounded=0;" edge="1" parent="KI7-48ItUX7r2pZbDz1g-10">
          <mxGeometry width="50" height="50" relative="1" as="geometry">
            <mxPoint x="59.5" y="355" as="sourcePoint" />
            <mxPoint x="-200.5" y="355" as="targetPoint" />
          </mxGeometry>
        </mxCell>
        <mxCell id="KI7-48ItUX7r2pZbDz1g-15" value="&lt;div&gt;State transition from&lt;/div&gt;&lt;div&gt;&amp;nbsp;&lt;b&gt;Approved&lt;/b&gt; to &lt;b&gt;Activated&lt;/b&gt;&lt;br&gt;&lt;/div&gt;" style="edgeLabel;html=1;align=center;verticalAlign=middle;resizable=0;points=[];" connectable="0" vertex="1" parent="KI7-48ItUX7r2pZbDz1g-14">
          <mxGeometry x="-0.1131" y="-2" relative="1" as="geometry">
            <mxPoint x="-12" y="1" as="offset" />
          </mxGeometry>
        </mxCell>
        <mxCell id="KI7-48ItUX7r2pZbDz1g-16" value="" style="html=1;points=[];perimeter=orthogonalPerimeter;outlineConnect=0;targetShapes=umlLifeline;portConstraint=eastwest;newEdgeStyle={&quot;edgeStyle&quot;:&quot;elbowEdgeStyle&quot;,&quot;elbow&quot;:&quot;vertical&quot;,&quot;curved&quot;:0,&quot;rounded&quot;:0};" vertex="1" parent="KI7-48ItUX7r2pZbDz1g-10">
          <mxGeometry x="59.5" y="294" width="10" height="120" as="geometry" />
        </mxCell>
        <mxCell id="KI7-48ItUX7r2pZbDz1g-17" value="USSPVehicle" style="shape=umlLifeline;perimeter=lifelinePerimeter;whiteSpace=wrap;html=1;container=1;collapsible=0;recursiveResize=0;outlineConnect=0;" vertex="1" parent="1">
          <mxGeometry x="-862" y="119" width="163" height="511" as="geometry" />
        </mxCell>
        <mxCell id="KI7-48ItUX7r2pZbDz1g-18" value="" style="html=1;points=[];perimeter=orthogonalPerimeter;outlineConnect=0;targetShapes=umlLifeline;portConstraint=eastwest;newEdgeStyle={&quot;edgeStyle&quot;:&quot;elbowEdgeStyle&quot;,&quot;elbow&quot;:&quot;vertical&quot;,&quot;curved&quot;:0,&quot;rounded&quot;:0};" vertex="1" parent="KI7-48ItUX7r2pZbDz1g-17">
          <mxGeometry x="76.5" y="238" width="10" height="220" as="geometry" />
        </mxCell>
        <mxCell id="KI7-48ItUX7r2pZbDz1g-19" value="USSP Toolbar" style="shape=umlLifeline;perimeter=lifelinePerimeter;whiteSpace=wrap;html=1;container=1;collapsible=0;recursiveResize=0;outlineConnect=0;" vertex="1" parent="1">
          <mxGeometry x="-1076" y="118" width="100" height="512" as="geometry" />
        </mxCell>
        <mxCell id="KI7-48ItUX7r2pZbDz1g-20" value="" style="endArrow=classic;html=1;rounded=0;" edge="1" parent="KI7-48ItUX7r2pZbDz1g-19" target="KI7-48ItUX7r2pZbDz1g-2">
          <mxGeometry width="50" height="50" relative="1" as="geometry">
            <mxPoint x="53" y="106" as="sourcePoint" />
            <mxPoint x="898" y="104" as="targetPoint" />
          </mxGeometry>
        </mxCell>
        <mxCell id="KI7-48ItUX7r2pZbDz1g-21" value="Submit Flight Plan Button Clicked" style="edgeLabel;html=1;align=center;verticalAlign=middle;resizable=0;points=[];" connectable="0" vertex="1" parent="KI7-48ItUX7r2pZbDz1g-20">
          <mxGeometry x="-0.8658" y="2" relative="1" as="geometry">
            <mxPoint x="42" y="1" as="offset" />
          </mxGeometry>
        </mxCell>
        <mxCell id="KI7-48ItUX7r2pZbDz1g-22" value="" style="html=1;points=[];perimeter=orthogonalPerimeter;outlineConnect=0;targetShapes=umlLifeline;portConstraint=eastwest;newEdgeStyle={&quot;edgeStyle&quot;:&quot;elbowEdgeStyle&quot;,&quot;elbow&quot;:&quot;vertical&quot;,&quot;curved&quot;:0,&quot;rounded&quot;:0};" vertex="1" parent="KI7-48ItUX7r2pZbDz1g-19">
          <mxGeometry x="45" y="90" width="10" height="80" as="geometry" />
        </mxCell>
        <mxCell id="KI7-48ItUX7r2pZbDz1g-23" value="" style="html=1;points=[];perimeter=orthogonalPerimeter;outlineConnect=0;targetShapes=umlLifeline;portConstraint=eastwest;newEdgeStyle={&quot;edgeStyle&quot;:&quot;elbowEdgeStyle&quot;,&quot;elbow&quot;:&quot;vertical&quot;,&quot;curved&quot;:0,&quot;rounded&quot;:0};" vertex="1" parent="KI7-48ItUX7r2pZbDz1g-19">
          <mxGeometry x="45" y="217" width="10" height="242" as="geometry" />
        </mxCell>
        <mxCell id="KI7-48ItUX7r2pZbDz1g-24" value="" style="group" connectable="0" vertex="1" parent="1">
          <mxGeometry x="57" y="119" width="118.5" height="553" as="geometry" />
        </mxCell>
        <mxCell id="KI7-48ItUX7r2pZbDz1g-25" value="" style="group" connectable="0" vertex="1" parent="KI7-48ItUX7r2pZbDz1g-24">
          <mxGeometry width="118.5" height="37.98543689320388" as="geometry" />
        </mxCell>
        <mxCell id="KI7-48ItUX7r2pZbDz1g-26" value="" style="shape=cylinder3;whiteSpace=wrap;html=1;boundedLbl=1;backgroundOutline=1;size=15;rotation=90;" vertex="1" parent="KI7-48ItUX7r2pZbDz1g-25">
          <mxGeometry x="39.75" y="-30.487864077669897" width="39" height="90.8883495145631" as="geometry" />
        </mxCell>
        <mxCell id="KI7-48ItUX7r2pZbDz1g-27" value="&lt;div&gt;USSP&lt;/div&gt;&lt;div&gt;(FB)&lt;/div&gt;" style="text;html=1;align=center;verticalAlign=middle;resizable=0;points=[];autosize=1;strokeColor=none;fillColor=none;" vertex="1" parent="KI7-48ItUX7r2pZbDz1g-25">
          <mxGeometry x="23" y="-2.0145631067961176" width="60" height="40" as="geometry" />
        </mxCell>
        <mxCell id="KI7-48ItUX7r2pZbDz1g-28" value="" style="endArrow=none;dashed=1;html=1;rounded=0;entryX=1;entryY=0.5;entryDx=0;entryDy=0;entryPerimeter=0;" edge="1" parent="KI7-48ItUX7r2pZbDz1g-24" target="KI7-48ItUX7r2pZbDz1g-26">
          <mxGeometry width="50" height="50" relative="1" as="geometry">
            <mxPoint x="65" y="531" as="sourcePoint" />
            <mxPoint x="53" y="69.02912621359224" as="targetPoint" />
          </mxGeometry>
        </mxCell>
        <mxCell id="KI7-48ItUX7r2pZbDz1g-29" value="" style="html=1;points=[];perimeter=orthogonalPerimeter;outlineConnect=0;targetShapes=umlLifeline;portConstraint=eastwest;newEdgeStyle={&quot;edgeStyle&quot;:&quot;elbowEdgeStyle&quot;,&quot;elbow&quot;:&quot;vertical&quot;,&quot;curved&quot;:0,&quot;rounded&quot;:0};" vertex="1" parent="KI7-48ItUX7r2pZbDz1g-24">
          <mxGeometry x="58" y="92.85447761194028" width="10" height="53.64925373134328" as="geometry" />
        </mxCell>
        <mxCell id="KI7-48ItUX7r2pZbDz1g-30" value="" style="html=1;points=[];perimeter=orthogonalPerimeter;outlineConnect=0;targetShapes=umlLifeline;portConstraint=eastwest;newEdgeStyle={&quot;edgeStyle&quot;:&quot;elbowEdgeStyle&quot;,&quot;elbow&quot;:&quot;vertical&quot;,&quot;curved&quot;:0,&quot;rounded&quot;:0};" vertex="1" parent="KI7-48ItUX7r2pZbDz1g-24">
          <mxGeometry x="58" y="443.0044776119403" width="10" height="53.64925373134328" as="geometry" />
        </mxCell>
        <mxCell id="KI7-48ItUX7r2pZbDz1g-31" value="" style="group" connectable="0" vertex="1" parent="1">
          <mxGeometry x="238" y="117" width="118.5" height="528" as="geometry" />
        </mxCell>
        <mxCell id="KI7-48ItUX7r2pZbDz1g-32" value="" style="group" connectable="0" vertex="1" parent="KI7-48ItUX7r2pZbDz1g-31">
          <mxGeometry width="118.5" height="37.76005547850208" as="geometry" />
        </mxCell>
        <mxCell id="KI7-48ItUX7r2pZbDz1g-33" value="" style="shape=cylinder3;whiteSpace=wrap;html=1;boundedLbl=1;backgroundOutline=1;size=15;rotation=90;" vertex="1" parent="KI7-48ItUX7r2pZbDz1g-32">
          <mxGeometry x="39.75" y="-29.109570041608876" width="39" height="86.77947295423024" as="geometry" />
        </mxCell>
        <mxCell id="KI7-48ItUX7r2pZbDz1g-34" value="&lt;div&gt;USSP&lt;/div&gt;&lt;div&gt;(AMQP)&lt;/div&gt;" style="text;html=1;align=center;verticalAlign=middle;resizable=0;points=[];autosize=1;strokeColor=none;fillColor=none;" vertex="1" parent="KI7-48ItUX7r2pZbDz1g-32">
          <mxGeometry x="18" y="-2.23994452149792" width="70" height="40" as="geometry" />
        </mxCell>
        <mxCell id="KI7-48ItUX7r2pZbDz1g-35" value="" style="endArrow=none;dashed=1;html=1;rounded=0;entryX=1;entryY=0.5;entryDx=0;entryDy=0;entryPerimeter=0;" edge="1" parent="KI7-48ItUX7r2pZbDz1g-31" source="KI7-48ItUX7r2pZbDz1g-37" target="KI7-48ItUX7r2pZbDz1g-33">
          <mxGeometry width="50" height="50" relative="1" as="geometry">
            <mxPoint x="65" y="528" as="sourcePoint" />
            <mxPoint x="53" y="65.90846047156727" as="targetPoint" />
          </mxGeometry>
        </mxCell>
        <mxCell id="KI7-48ItUX7r2pZbDz1g-36" value="" style="endArrow=none;dashed=1;html=1;rounded=0;" edge="1" parent="KI7-48ItUX7r2pZbDz1g-31" target="KI7-48ItUX7r2pZbDz1g-37">
          <mxGeometry width="50" height="50" relative="1" as="geometry">
            <mxPoint x="59" y="533" as="sourcePoint" />
            <mxPoint x="297" y="151" as="targetPoint" />
            <Array as="points">
              <mxPoint x="59" y="351" />
            </Array>
          </mxGeometry>
        </mxCell>
        <mxCell id="KI7-48ItUX7r2pZbDz1g-37" value="" style="html=1;points=[];perimeter=orthogonalPerimeter;outlineConnect=0;targetShapes=umlLifeline;portConstraint=eastwest;newEdgeStyle={&quot;edgeStyle&quot;:&quot;elbowEdgeStyle&quot;,&quot;elbow&quot;:&quot;vertical&quot;,&quot;curved&quot;:0,&quot;rounded&quot;:0};" vertex="1" parent="KI7-48ItUX7r2pZbDz1g-31">
          <mxGeometry x="54.25" y="227" width="10" height="43" as="geometry" />
        </mxCell>
        <mxCell id="KI7-48ItUX7r2pZbDz1g-38" value="" style="endArrow=classic;html=1;rounded=0;dashed=1;" edge="1" parent="1">
          <mxGeometry width="50" height="50" relative="1" as="geometry">
            <mxPoint x="113" y="245" as="sourcePoint" />
            <mxPoint x="-98" y="248" as="targetPoint" />
          </mxGeometry>
        </mxCell>
        <mxCell id="KI7-48ItUX7r2pZbDz1g-39" value="Response" style="edgeLabel;html=1;align=center;verticalAlign=middle;resizable=0;points=[];" connectable="0" vertex="1" parent="KI7-48ItUX7r2pZbDz1g-38">
          <mxGeometry x="-0.1131" y="-2" relative="1" as="geometry">
            <mxPoint as="offset" />
          </mxGeometry>
        </mxCell>
        <mxCell id="KI7-48ItUX7r2pZbDz1g-40" value="" style="endArrow=classic;html=1;rounded=0;dashed=1;" edge="1" parent="1">
          <mxGeometry width="50" height="50" relative="1" as="geometry">
            <mxPoint x="-120" y="265" as="sourcePoint" />
            <mxPoint x="-1015" y="269" as="targetPoint" />
          </mxGeometry>
        </mxCell>
        <mxCell id="KI7-48ItUX7r2pZbDz1g-41" value="Emit Notification" style="edgeLabel;html=1;align=center;verticalAlign=middle;resizable=0;points=[];" connectable="0" vertex="1" parent="KI7-48ItUX7r2pZbDz1g-40">
          <mxGeometry x="-0.1131" y="-2" relative="1" as="geometry">
            <mxPoint x="-417" y="3" as="offset" />
          </mxGeometry>
        </mxCell>
        <mxCell id="KI7-48ItUX7r2pZbDz1g-42" value="" style="endArrow=classic;html=1;rounded=0;" edge="1" parent="1">
          <mxGeometry width="50" height="50" relative="1" as="geometry">
            <mxPoint x="-114" y="293" as="sourcePoint" />
            <mxPoint x="-503" y="293" as="targetPoint" />
          </mxGeometry>
        </mxCell>
        <mxCell id="KI7-48ItUX7r2pZbDz1g-43" value="Trigger&amp;nbsp; State-1" style="edgeLabel;html=1;align=center;verticalAlign=middle;resizable=0;points=[];" connectable="0" vertex="1" parent="KI7-48ItUX7r2pZbDz1g-42">
          <mxGeometry x="-0.1131" y="-2" relative="1" as="geometry">
            <mxPoint x="-129" y="2" as="offset" />
          </mxGeometry>
        </mxCell>
        <mxCell id="KI7-48ItUX7r2pZbDz1g-44" value="" style="endArrow=classic;html=1;rounded=0;" edge="1" parent="1">
          <mxGeometry width="50" height="50" relative="1" as="geometry">
            <mxPoint x="-1017" y="351" as="sourcePoint" />
            <mxPoint x="-116" y="351" as="targetPoint" />
          </mxGeometry>
        </mxCell>
        <mxCell id="KI7-48ItUX7r2pZbDz1g-45" value="Upload&amp;nbsp; Flight Plan" style="edgeLabel;html=1;align=center;verticalAlign=middle;resizable=0;points=[];" connectable="0" vertex="1" parent="KI7-48ItUX7r2pZbDz1g-44">
          <mxGeometry x="-0.8658" y="2" relative="1" as="geometry">
            <mxPoint x="21" y="2" as="offset" />
          </mxGeometry>
        </mxCell>
        <mxCell id="KI7-48ItUX7r2pZbDz1g-46" value="" style="endArrow=classic;html=1;rounded=0;dashed=1;" edge="1" parent="1">
          <mxGeometry width="50" height="50" relative="1" as="geometry">
            <mxPoint x="290" y="380" as="sourcePoint" />
            <mxPoint x="-104" y="380" as="targetPoint" />
          </mxGeometry>
        </mxCell>
        <mxCell id="KI7-48ItUX7r2pZbDz1g-47" value="Response" style="edgeLabel;html=1;align=center;verticalAlign=middle;resizable=0;points=[];" connectable="0" vertex="1" parent="KI7-48ItUX7r2pZbDz1g-46">
          <mxGeometry x="-0.1131" y="-2" relative="1" as="geometry">
            <mxPoint as="offset" />
          </mxGeometry>
        </mxCell>
        <mxCell id="KI7-48ItUX7r2pZbDz1g-48" value="" style="endArrow=classic;html=1;rounded=0;dashed=1;" edge="1" parent="1">
          <mxGeometry width="50" height="50" relative="1" as="geometry">
            <mxPoint x="-114.00000000000023" y="402" as="sourcePoint" />
            <mxPoint x="-1015" y="402" as="targetPoint" />
          </mxGeometry>
        </mxCell>
        <mxCell id="KI7-48ItUX7r2pZbDz1g-49" value="Emit Notification" style="edgeLabel;html=1;align=center;verticalAlign=middle;resizable=0;points=[];" connectable="0" vertex="1" parent="KI7-48ItUX7r2pZbDz1g-48">
          <mxGeometry x="-0.1131" y="-2" relative="1" as="geometry">
            <mxPoint x="-422" y="2" as="offset" />
          </mxGeometry>
        </mxCell>
        <mxCell id="KI7-48ItUX7r2pZbDz1g-50" value="" style="endArrow=classic;html=1;rounded=0;dashed=1;" edge="1" parent="1" source="KI7-48ItUX7r2pZbDz1g-53" target="KI7-48ItUX7r2pZbDz1g-17">
          <mxGeometry width="50" height="50" relative="1" as="geometry">
            <mxPoint x="-515" y="296" as="sourcePoint" />
            <mxPoint x="-741" y="296" as="targetPoint" />
          </mxGeometry>
        </mxCell>
        <mxCell id="KI7-48ItUX7r2pZbDz1g-51" value="" style="endArrow=classic;html=1;rounded=0;" edge="1" parent="1" target="KI7-48ItUX7r2pZbDz1g-53">
          <mxGeometry width="50" height="50" relative="1" as="geometry">
            <mxPoint x="-515" y="296" as="sourcePoint" />
            <mxPoint x="-781" y="296" as="targetPoint" />
            <Array as="points">
              <mxPoint x="-730" y="300" />
            </Array>
          </mxGeometry>
        </mxCell>
        <mxCell id="KI7-48ItUX7r2pZbDz1g-52" value="&lt;div&gt;State transition from&amp;nbsp;&lt;/div&gt;&lt;div&gt;&lt;b&gt;Idle&lt;/b&gt; to &lt;b&gt;SendFlightPlan&lt;/b&gt;&lt;/div&gt;" style="edgeLabel;html=1;align=center;verticalAlign=middle;resizable=0;points=[];" connectable="0" vertex="1" parent="KI7-48ItUX7r2pZbDz1g-51">
          <mxGeometry x="-0.1131" y="-2" relative="1" as="geometry">
            <mxPoint x="-12" y="1" as="offset" />
          </mxGeometry>
        </mxCell>
        <mxCell id="KI7-48ItUX7r2pZbDz1g-53" value="" style="html=1;points=[];perimeter=orthogonalPerimeter;outlineConnect=0;targetShapes=umlLifeline;portConstraint=eastwest;newEdgeStyle={&quot;edgeStyle&quot;:&quot;elbowEdgeStyle&quot;,&quot;elbow&quot;:&quot;vertical&quot;,&quot;curved&quot;:0,&quot;rounded&quot;:0};" vertex="1" parent="1">
          <mxGeometry x="-785.5" y="283" width="10" height="29" as="geometry" />
        </mxCell>
        <mxCell id="KI7-48ItUX7r2pZbDz1g-54" value="" style="endArrow=classic;html=1;rounded=0;entryX=0.535;entryY=0.261;entryDx=0;entryDy=0;entryPerimeter=0;" edge="1" parent="1">
          <mxGeometry width="50" height="50" relative="1" as="geometry">
            <mxPoint x="-114" y="424" as="sourcePoint" />
            <mxPoint x="-506" y="424" as="targetPoint" />
          </mxGeometry>
        </mxCell>
        <mxCell id="KI7-48ItUX7r2pZbDz1g-55" value="Trigger&amp;nbsp; State-2" style="edgeLabel;html=1;align=center;verticalAlign=middle;resizable=0;points=[];" connectable="0" vertex="1" parent="KI7-48ItUX7r2pZbDz1g-54">
          <mxGeometry x="-0.1131" y="-2" relative="1" as="geometry">
            <mxPoint x="-129" y="2" as="offset" />
          </mxGeometry>
        </mxCell>
        <mxCell id="KI7-48ItUX7r2pZbDz1g-56" value="" style="endArrow=classic;html=1;rounded=0;entryX=0.535;entryY=0.261;entryDx=0;entryDy=0;entryPerimeter=0;" edge="1" parent="1">
          <mxGeometry width="50" height="50" relative="1" as="geometry">
            <mxPoint x="-114" y="472.57" as="sourcePoint" />
            <mxPoint x="-506" y="472.57" as="targetPoint" />
          </mxGeometry>
        </mxCell>
        <mxCell id="KI7-48ItUX7r2pZbDz1g-57" value="Trigger&amp;nbsp; State-3" style="edgeLabel;html=1;align=center;verticalAlign=middle;resizable=0;points=[];" connectable="0" vertex="1" parent="KI7-48ItUX7r2pZbDz1g-56">
          <mxGeometry x="-0.1131" y="-2" relative="1" as="geometry">
            <mxPoint x="-129" y="2" as="offset" />
          </mxGeometry>
        </mxCell>
        <mxCell id="KI7-48ItUX7r2pZbDz1g-58" value="" style="endArrow=classic;html=1;rounded=0;dashed=1;" edge="1" parent="1">
          <mxGeometry width="50" height="50" relative="1" as="geometry">
            <mxPoint x="-117.00000000000023" y="449" as="sourcePoint" />
            <mxPoint x="-1018" y="449" as="targetPoint" />
          </mxGeometry>
        </mxCell>
        <mxCell id="KI7-48ItUX7r2pZbDz1g-59" value="Emit Notification" style="edgeLabel;html=1;align=center;verticalAlign=middle;resizable=0;points=[];" connectable="0" vertex="1" parent="KI7-48ItUX7r2pZbDz1g-58">
          <mxGeometry x="-0.1131" y="-2" relative="1" as="geometry">
            <mxPoint x="-422" y="2" as="offset" />
          </mxGeometry>
        </mxCell>
        <mxCell id="KI7-48ItUX7r2pZbDz1g-60" value="" style="endArrow=classic;html=1;rounded=0;dashed=1;" edge="1" parent="1">
          <mxGeometry width="50" height="50" relative="1" as="geometry">
            <mxPoint x="-117.00000000000023" y="510" as="sourcePoint" />
            <mxPoint x="-1018" y="510" as="targetPoint" />
          </mxGeometry>
        </mxCell>
        <mxCell id="KI7-48ItUX7r2pZbDz1g-61" value="Emit Notification" style="edgeLabel;html=1;align=center;verticalAlign=middle;resizable=0;points=[];" connectable="0" vertex="1" parent="KI7-48ItUX7r2pZbDz1g-60">
          <mxGeometry x="-0.1131" y="-2" relative="1" as="geometry">
            <mxPoint x="-422" y="2" as="offset" />
          </mxGeometry>
        </mxCell>
        <mxCell id="KI7-48ItUX7r2pZbDz1g-62" value="&lt;div align=&quot;left&quot;&gt;State-0: &lt;b&gt;Idle&lt;/b&gt;&lt;/div&gt;&lt;div align=&quot;left&quot;&gt;State-1: &lt;b&gt;SendFlightPlan&lt;/b&gt;&lt;/div&gt;&lt;div align=&quot;left&quot;&gt;State-2: &lt;b&gt;Approved&lt;/b&gt;.&lt;/div&gt;&lt;div align=&quot;left&quot;&gt;State-3: &lt;b&gt;Activated&lt;/b&gt;.&lt;/div&gt;&lt;div align=&quot;left&quot;&gt;&lt;br&gt;&lt;/div&gt;" style="text;html=1;align=left;verticalAlign=middle;resizable=0;points=[];autosize=1;strokeColor=none;fillColor=none;" vertex="1" parent="1">
          <mxGeometry x="-444" y="649" width="160" height="90" as="geometry" />
        </mxCell>
        <mxCell id="KI7-48ItUX7r2pZbDz1g-63" value="" style="endArrow=classic;html=1;rounded=0;" edge="1" parent="1">
          <mxGeometry width="50" height="50" relative="1" as="geometry">
            <mxPoint x="-104" y="352.4615672676838" as="sourcePoint" />
            <mxPoint x="294" y="348.0010957004161" as="targetPoint" />
          </mxGeometry>
        </mxCell>
        <mxCell id="KI7-48ItUX7r2pZbDz1g-64" value="Requesting Approval" style="edgeLabel;html=1;align=center;verticalAlign=middle;resizable=0;points=[];" connectable="0" vertex="1" parent="KI7-48ItUX7r2pZbDz1g-63">
          <mxGeometry x="-0.031" y="1" relative="1" as="geometry">
            <mxPoint x="98" y="-2" as="offset" />
          </mxGeometry>
        </mxCell>
        <mxCell id="KI7-48ItUX7r2pZbDz1g-65" value="" style="rounded=1;whiteSpace=wrap;html=1;" vertex="1" parent="1">
          <mxGeometry x="-490" y="390" width="120" height="60" as="geometry" />
        </mxCell>
        <mxCell id="KI7-48ItUX7r2pZbDz1g-66" value="" style="rounded=1;whiteSpace=wrap;html=1;" vertex="1" parent="1">
          <mxGeometry x="-490" y="390" width="120" height="60" as="geometry" />
        </mxCell>
        <mxCell id="KI7-48ItUX7r2pZbDz1g-67" value="&lt;div tabindex=&quot;0&quot; role=&quot;button&quot; style=&quot;font-size: 11px;&quot;&gt;&lt;div class=&quot;sc-hHOBiw iHxTBu&quot; style=&quot;font-size: 11px;&quot;&gt;qgcs/flight_declaration&lt;/div&gt;&lt;/div&gt;" style="edgeLabel;html=1;align=center;verticalAlign=middle;resizable=0;points=[];" connectable="0" vertex="1" parent="1">
          <mxGeometry x="1.9868055445804202" y="222.03118888976678" as="geometry" />
        </mxCell>
      </root>
    </mxGraphModel>
  </diagram>
</mxfile>
